<?xml version="1.0" standalone="no"?>
<!DOCTYPE svg PUBLIC "-//W3C//DTD SVG 20010904//EN"
 "http://www.w3.org/TR/2001/REC-SVG-20010904/DTD/svg10.dtd">
<svg version="1.0" xmlns="http://www.w3.org/2000/svg"
 width="16.000000pt" height="16.000000pt" viewBox="0 0 16.000000 16.000000"
 preserveAspectRatio="xMidYMid meet">
<metadata>
Created by potrace 1.11, written by Peter Selinger 2001-2013
</metadata>
<g transform="translate(0.000000,16.000000) scale(0.007960,-0.007960)"
fill="#000000" stroke="none">
<path d="M2 1898 l3 -111 990 1 c545 0 993 1 998 1 4 1 7 51 7 111 l0 110
-1000 0 -1001 0 3 -112z"/>
<path d="M160 1609 c-104 -42 -135 -174 -63 -260 97 -115 292 -44 293 107 1
107 -129 193 -230 153z"/>
<path d="M623 1555 c-88 -37 -87 -164 1 -200 42 -18 93 -5 126 30 30 32 33
105 4 136 -37 42 -84 54 -131 34z"/>
<path d="M1059 1547 c-45 -30 -61 -63 -54 -111 5 -37 44 -85 70 -87 6 0 19 -2
29 -4 54 -10 116 49 116 110 0 84 -94 137 -161 92z"/>
<path d="M1517 1492 c-33 -36 -8 -92 40 -92 25 0 53 30 53 57 0 46 -62 69 -93
35z"/>
<path d="M173 1168 c-18 -5 -48 -24 -66 -42 -136 -136 32 -354 198 -257 33 19
72 71 82 110 8 34 -14 111 -40 139 -45 49 -110 67 -174 50z"/>
<path d="M608 1103 c-46 -29 -64 -90 -40 -139 41 -88 172 -81 202 10 32 98
-75 183 -162 129z"/>
<path d="M1042 1092 c-55 -52 -55 -124 2 -167 49 -37 99 -34 142 9 28 28 34
42 34 76 0 34 -6 48 -34 76 -45 45 -100 47 -144 6z"/>
<path d="M1533 1059 c-12 -4 -25 -19 -29 -33 -5 -23 9 -65 24 -67 4 0 15 -2
24 -4 23 -4 58 31 58 59 0 37 -39 59 -77 45z"/>
<path d="M155 719 c-104 -61 -129 -175 -58 -260 53 -62 137 -76 209 -34 101
60 109 207 14 275 -36 26 -134 37 -165 19z"/>
<path d="M623 665 c-91 -39 -86 -169 8 -200 45 -16 87 -3 121 36 71 84 -26
208 -129 164z"/>
<path d="M1062 663 c-17 -8 -38 -31 -47 -50 -61 -128 127 -222 193 -96 24 44
4 120 -36 142 -32 17 -79 19 -110 4z"/>
<path d="M1517 602 c-33 -36 -8 -92 40 -92 25 0 53 30 53 57 0 46 -62 69 -93
35z"/>
<path d="M10 232 c-6 -2 -10 -49 -10 -113 l0 -109 1000 0 1000 0 0 110 c0 98
-2 110 -17 111 -67 2 -1965 3 -1973 1z"/>
</g>
</svg>
